<?xml version="1.0" standalone="no"?>
<!DOCTYPE svg PUBLIC "-//W3C//DTD SVG 20010904//EN"
 "http://www.w3.org/TR/2001/REC-SVG-20010904/DTD/svg10.dtd">
<svg version="1.0" xmlns="http://www.w3.org/2000/svg"
 width="700.000000pt" height="700.000000pt" viewBox="0 0 700.000000 700.000000"
 preserveAspectRatio="xMidYMid meet">
<metadata>
Created by potrace 1.11, written by Peter Selinger 2001-2013
</metadata>
<g transform="translate(0.000000,700.000000) scale(0.100000,-0.100000)"
fill="#000000" stroke="none">
<path d="M4580 6951 c-14 -4 -39 -15 -55 -24 -90 -46 -145 -185 -115 -291 15
-53 67 -118 109 -136 58 -23 65 -119 21 -250 -30 -87 -129 -280 -143 -280 -7
0 -61 16 -122 36 -127 40 -354 88 -503 105 -65 7 -192 9 -340 6 -253 -5 -392
-22 -580 -72 -52 -14 -98 -25 -102 -25 -12 0 -75 136 -99 215 -12 37 -21 92
-21 122 0 51 3 58 38 92 20 20 52 43 69 53 17 9 44 35 60 59 23 34 28 55 31
113 3 64 0 78 -30 136 -42 82 -100 122 -189 128 -56 4 -75 -2 -395 -124 -362
-139 -399 -159 -435 -238 -39 -85 -11 -214 62 -287 51 -51 129 -75 196 -61 75
16 114 -10 172 -119 31 -57 91 -227 91 -257 0 -11 -25 -30 -68 -52 -89 -46
-290 -181 -388 -260 -43 -36 -127 -111 -186 -168 l-107 -104 -68 41 c-103 59
-190 128 -234 184 -47 60 -51 106 -14 182 46 93 27 203 -46 272 -87 81 -192
100 -285 52 -44 -22 -71 -54 -256 -305 -114 -153 -217 -299 -229 -323 -59
-119 7 -268 144 -326 75 -31 171 -14 237 43 59 50 99 52 182 9 68 -35 145 -92
231 -169 l47 -43 -98 -195 c-64 -127 -114 -244 -145 -335 -46 -139 -97 -336
-97 -375 0 -30 -23 -34 -82 -15 -71 23 -135 61 -149 88 -7 12 -14 57 -15 100
-3 93 -28 152 -81 196 -36 30 -127 61 -177 61 -77 0 -168 -56 -200 -124 -23
-49 -166 -691 -166 -746 0 -70 39 -144 96 -179 138 -88 290 -56 360 76 37 70
75 93 152 93 71 0 194 -28 209 -48 8 -10 13 -48 13 -98 0 -230 70 -561 177
-836 l45 -117 -36 -44 c-71 -87 -223 -204 -294 -228 -48 -16 -98 -3 -141 37
-50 44 -99 64 -161 64 -132 0 -251 -113 -252 -239 0 -27 5 -65 11 -84 6 -18
116 -162 244 -318 262 -319 277 -333 382 -333 72 1 112 19 177 82 80 77 97
175 48 272 -11 21 -20 52 -20 68 0 58 84 152 226 255 29 20 54 37 57 37 3 0
43 -48 88 -107 172 -226 457 -478 714 -633 l107 -64 -6 -48 c-11 -79 -55 -219
-90 -282 -49 -91 -66 -100 -189 -100 -97 -1 -107 -3 -153 -31 -62 -39 -106
-118 -112 -205 -3 -47 1 -69 21 -113 29 -65 72 -100 153 -126 32 -11 185 -60
340 -110 211 -68 294 -91 334 -91 135 0 230 110 230 264 0 72 -44 146 -107
183 -55 31 -60 36 -72 81 -17 58 16 205 75 339 l23 52 68 -20 c225 -67 464
-99 728 -99 482 0 896 111 1329 357 l48 28 82 -85 c97 -100 161 -192 187 -266
18 -49 18 -57 4 -90 -8 -19 -32 -56 -54 -80 -87 -99 -76 -224 28 -332 82 -85
208 -91 309 -15 391 297 544 419 564 451 19 31 23 51 23 119 0 80 -1 83 -41
140 -56 79 -125 116 -205 111 -30 -2 -74 -14 -96 -25 -81 -43 -155 0 -272 158
-23 31 -61 92 -86 134 l-44 78 106 111 c159 166 285 334 393 525 l54 93 45 -5
c69 -9 218 -54 286 -87 33 -16 74 -43 90 -60 30 -31 30 -32 27 -133 -2 -100
-1 -104 30 -157 41 -68 117 -112 209 -118 81 -6 159 31 199 95 35 54 250 695
250 742 0 158 -172 277 -331 229 -49 -14 -112 -68 -129 -108 -35 -84 -173 -80
-383 10 -49 22 -94 43 -100 49 -5 5 -3 29 6 63 26 89 65 297 78 415 18 171 7
535 -21 693 -40 228 -98 425 -182 615 -21 50 -42 95 -45 102 -8 18 172 192
260 250 133 90 188 93 276 18 100 -86 206 -87 310 -5 87 69 119 168 84 262
-11 30 -100 154 -238 333 -196 255 -224 288 -269 310 -99 49 -213 22 -295 -71
-65 -75 -78 -181 -31 -262 18 -29 19 -39 9 -75 -18 -71 -151 -188 -330 -291
l-46 -26 -58 71 c-148 184 -346 365 -554 507 -122 84 -115 62 -71 240 33 131
94 263 142 309 36 35 81 43 165 28 97 -17 205 50 242 151 48 128 8 249 -99
303 -19 10 -174 71 -345 136 -305 116 -370 134 -425 116z m-1757 -1516 c355
-92 471 -527 208 -778 -259 -248 -676 -128 -766 220 -87 332 226 645 558 558z
m2510 -634 c31 -13 82 -41 112 -64 277 -211 233 -634 -82 -785 -77 -36 -80
-37 -198 -37 -119 0 -121 0 -197 38 -230 115 -324 379 -218 613 52 116 180
222 307 254 65 16 211 6 276 -19z m-1699 -674 c102 -48 175 -121 223 -224 32
-66 38 -89 41 -166 6 -110 -15 -194 -67 -275 -96 -148 -236 -218 -417 -210
-84 3 -100 7 -177 46 -103 51 -164 113 -216 222 -35 73 -36 79 -36 190 0 112
1 117 37 193 60 126 164 214 298 253 28 8 82 12 142 10 86 -3 104 -7 172 -39z
m-1337 -589 c117 -43 204 -122 261 -237 36 -74 37 -77 37 -195 0 -118 -1 -123
-36 -197 -136 -285 -499 -356 -728 -143 -192 179 -203 461 -25 653 124 134
322 182 491 119z m2874 -512 c219 -47 369 -233 369 -457 0 -128 -50 -240 -149
-332 -231 -214 -587 -146 -728 139 -38 77 -38 79 -38 199 0 119 0 122 37 196
77 155 242 263 408 268 19 0 65 -6 101 -13z m-1566 -671 c82 -22 144 -58 208
-122 312 -312 47 -844 -390 -782 -177 25 -337 167 -383 338 -18 68 -14 187 8
258 73 234 320 369 557 308z"/>
</g>
</svg>
