<?xml version="1.0" encoding="UTF-8" standalone="no"?>
<svg
   xmlns:dc="http://purl.org/dc/elements/1.1/"
   xmlns:cc="http://creativecommons.org/ns#"
   xmlns:rdf="http://www.w3.org/1999/02/22-rdf-syntax-ns#"
   xmlns:svg="http://www.w3.org/2000/svg"
   xmlns="http://www.w3.org/2000/svg"
   xmlns:sodipodi="http://sodipodi.sourceforge.net/DTD/sodipodi-0.dtd"
   xmlns:inkscape="http://www.inkscape.org/namespaces/inkscape"
   inkscape:export-ydpi="96"
   inkscape:export-xdpi="96"
   inkscape:export-filename="C:\Users\Lenovo\Documents\Inkscape\virus.png"
   width="260"
   height="260"
   viewBox="0 0 68.791665 68.791669"
   version="1.1"
   id="svg8"
   inkscape:version="1.0 (4035a4fb49, 2020-05-01)"
   sodipodi:docname="virus.svg">
  <defs
     id="defs2" />
  <sodipodi:namedview
     id="base"
     pagecolor="#ffffff"
     bordercolor="#666666"
     borderopacity="1.0"
     inkscape:pageopacity="0"
     inkscape:pageshadow="2"
     inkscape:zoom="3.959798"
     inkscape:cx="154.92218"
     inkscape:cy="67.800765"
     inkscape:document-units="mm"
     inkscape:current-layer="layer1"
     inkscape:document-rotation="0"
     showgrid="false"
     units="px"
     inkscape:window-width="3840"
     inkscape:window-height="2066"
     inkscape:window-x="-11"
     inkscape:window-y="-11"
     inkscape:window-maximized="1" />
  <metadata
     id="metadata5">
    <rdf:RDF>
      <cc:Work
         rdf:about="">
        <dc:format>image/svg+xml</dc:format>
        <dc:type
           rdf:resource="http://purl.org/dc/dcmitype/StillImage" />
        <dc:title />
      </cc:Work>
    </rdf:RDF>
  </metadata>
  <g
     inkscape:label="Layer 1"
     inkscape:groupmode="layer"
     id="layer1">
    <path
       id="path833"
       style="font-variation-settings:'wdth' 100, 'wght' 600;opacity:0.996;fill:#8dd35f;stroke:none;stroke-width:2.30111;stroke-linecap:round;stroke-linejoin:bevel"
       d="M 171.94727 1.4902344 C 168.65195 1.6034143 165.59758 3.6496748 164.34375 6.9335938 L 163.89453 8.1132812 C 162.22276 12.49184 164.40074 17.363379 168.7793 19.035156 C 168.7793 19.035156 169.71983 20.889208 169.75586 21.435547 C 170.10829 26.78019 165.52697 35.073873 163.50195 38.464844 A 97.358073 97.358073 0 0 0 129.80469 32.447266 A 97.358073 97.358073 0 0 0 101.97656 36.509766 C 99.769833 32.423127 97.152926 26.572676 97.701172 22.46875 C 97.858892 21.288155 99.851562 19.615234 99.851562 19.615234 C 104.22696 17.935203 106.39487 13.058991 104.71484 8.6835938 L 104.26367 7.5058594 C 102.58364 3.1304617 97.709385 0.9586405 93.333984 2.6386719 L 70.699219 11.330078 C 66.323826 13.01011 64.155903 17.886318 65.835938 22.261719 L 66.289062 23.439453 C 67.969093 27.814848 72.843353 29.984713 77.21875 28.304688 C 77.21875 28.304688 79.157129 29.056883 79.548828 29.439453 C 82.499367 32.321231 84.457364 38.57714 85.554688 43.083984 A 97.358073 97.358073 0 0 0 57.787109 64.292969 C 53.695229 62.165758 47.007556 58.184892 45.007812 53.890625 C 44.505005 52.810878 45.28125 50.328125 45.28125 50.328125 C 48.063519 46.556436 47.265826 41.280316 43.494141 38.498047 L 42.478516 37.75 C 38.706827 34.967737 33.430697 35.763469 30.648438 39.535156 L 16.255859 59.044922 C 13.473597 62.816611 14.271281 68.092735 18.042969 70.875 L 19.058594 71.623047 C 22.830279 74.405308 28.106407 73.609576 30.888672 69.837891 C 30.888672 69.837891 32.926825 69.427633 33.462891 69.539062 C 37.947278 70.471413 43.613389 75.539183 46.882812 78.789062 A 97.358073 97.358073 0 0 0 33.835938 113.41406 C 30.825119 112.75047 27.932747 111.73572 26.128906 110.1582 C 25.232317 109.37411 24.939453 106.78906 24.939453 106.78906 C 25.958366 102.2143 23.09429 97.712275 18.519531 96.693359 L 17.287109 96.419922 C 12.712348 95.400999 8.2083654 98.261163 7.1894531 102.83594 L 1.9199219 126.50195 C 0.90101259 131.07671 3.7650814 135.57874 8.3398438 136.59766 L 9.5703125 136.87109 C 14.145071 137.89 18.64906 135.02788 19.667969 130.45312 C 19.667969 130.45312 21.365054 129.25357 21.900391 129.13867 C 24.767518 128.5233 28.793653 129.27244 32.449219 130.32227 A 97.358073 97.358073 0 0 0 41.03125 169.77734 C 38.084619 173.145 32.219675 179.20322 27.320312 180.12695 C 26.149856 180.34764 23.935547 178.98047 23.935547 178.98047 C 20.967505 175.35317 15.656601 174.82493 12.029297 177.79297 L 11.052734 178.5918 C 7.4254335 181.55984 6.8932854 186.86879 9.8613281 190.49609 L 25.214844 209.25977 C 28.182888 212.88707 33.493787 213.41531 37.121094 210.44727 L 38.097656 209.64844 C 41.724956 206.6804 42.257107 201.37144 39.289062 197.74414 C 39.289062 197.74414 39.394388 195.66774 39.634766 195.17578 C 41.346686 191.67175 46.184992 188.08401 50.037109 185.62305 A 97.358073 97.358073 0 0 0 83.740234 215.57617 C 83.006366 220.15098 81.35121 227.60847 77.957031 230.82617 C 77.092634 231.64562 74.492187 231.69531 74.492188 231.69531 C 70.032564 230.25365 65.281503 232.68491 63.839844 237.14453 L 63.453125 238.3457 C 62.011466 242.80533 64.438814 247.55639 68.898438 248.99805 L 91.966797 256.45508 C 96.426416 257.89673 101.17748 255.46548 102.61914 251.00586 L 103.00781 249.80664 C 104.44947 245.34702 102.02017 240.59595 97.560547 239.1543 C 97.560547 239.1543 96.525338 237.35037 96.460938 236.80664 C 95.981657 232.76066 98.323595 226.7707 100.28711 222.58008 A 97.358073 97.358073 0 0 0 129.80469 227.16211 A 97.358073 97.358073 0 0 0 180.83984 212.71289 C 183.79266 215.37502 190.62203 222.01958 191.46094 227.41797 C 191.64383 228.59492 190.20703 230.76367 190.20703 230.76367 C 186.48609 233.61344 185.78695 238.9021 188.63672 242.62305 L 189.4043 243.625 C 192.25407 247.34594 197.54273 248.04899 201.26367 245.19922 L 220.51172 230.45703 C 224.23266 227.60726 224.93181 222.3186 222.08203 218.59766 L 221.31445 217.5957 C 218.46469 213.87476 213.17602 213.17171 209.45508 216.02148 C 209.45508 216.02148 207.3824 215.84981 206.89844 215.59375 C 202.24053 213.12935 197.62568 205.03943 195.73828 201.4375 A 97.358073 97.358073 0 0 0 216.3457 174.40234 C 220.78452 175.10773 228.95581 176.83914 232.33008 180.4707 C 233.14082 181.34326 233.16602 183.94531 233.16602 183.94531 C 231.67973 188.39026 234.06287 193.1641 238.50781 194.65039 L 239.70508 195.05078 C 244.15003 196.53707 248.92582 194.15784 250.41211 189.71289 L 258.09961 166.71875 C 259.58589 162.27381 257.20276 157.49996 252.75781 156.01367 L 251.56055 155.61328 C 247.1156 154.127 242.34175 156.50824 240.85547 160.95312 C 240.85547 160.95312 239.04239 161.97034 238.49805 162.0293 C 234.04361 162.51174 227.28564 159.57381 223.14258 157.49219 A 97.358073 97.358073 0 0 0 227.16211 129.80469 A 97.358073 97.358073 0 0 0 217.30469 87.113281 C 218.12421 86.140355 226.48936 76.356567 233.01758 75.339844 C 234.19447 75.156537 236.36328 76.591797 236.36328 76.591797 C 239.21431 80.311782 244.50462 81.011179 248.22461 78.160156 L 249.22656 77.392578 C 252.94654 74.541552 253.64594 69.251235 250.79492 65.53125 L 236.04883 46.289062 C 233.1978 42.569091 227.90748 41.869681 224.1875 44.720703 L 223.18555 45.488281 C 219.46557 48.339307 218.76421 53.629632 221.61523 57.349609 C 221.61523 57.349609 221.44338 59.422198 221.1875 59.90625 C 218.81899 64.386567 211.12228 68.896583 207.33203 70.916016 A 97.358073 97.358073 0 0 0 180.69141 46.804688 C 180.81 45.991153 182.80077 32.74309 187.92188 28.371094 C 188.82768 27.597733 191.42773 27.681641 191.42773 27.681641 C 195.80629 29.35342 200.67783 27.17348 202.34961 22.794922 L 202.79883 21.617188 C 204.4706 17.238629 202.29262 12.367091 197.91406 10.695312 L 175.26562 2.046875 C 174.17105 1.6289306 173.0457 1.4525077 171.94727 1.4902344 z M 100.61719 57.578125 A 17.172593 17.172593 0 0 1 100.61914 57.578125 A 17.172593 17.172593 0 0 1 100.76367 57.578125 A 17.172593 17.172593 0 0 1 117.93555 74.751953 A 17.172593 17.172593 0 0 1 100.76367 91.923828 A 17.172593 17.172593 0 0 1 83.589844 74.751953 A 17.172593 17.172593 0 0 1 100.61719 57.578125 z M 191.78516 80.560547 A 17.172593 17.172593 0 0 1 191.78711 80.560547 A 17.172593 17.172593 0 0 1 191.92969 80.560547 A 17.172593 17.172593 0 0 1 209.10156 97.732422 A 17.172593 17.172593 0 0 1 191.92969 114.9043 A 17.172593 17.172593 0 0 1 174.75586 97.732422 A 17.172593 17.172593 0 0 1 191.78516 80.560547 z M 127.64062 105.05664 A 17.172593 17.172593 0 0 1 127.78516 105.05664 A 17.172593 17.172593 0 0 1 144.95703 122.22852 A 17.172593 17.172593 0 0 1 127.78516 139.40039 A 17.172593 17.172593 0 0 1 110.61133 122.22852 A 17.172593 17.172593 0 0 1 127.64062 105.05664 z M 79.404297 127.53125 A 17.172593 17.172593 0 0 1 79.40625 127.53125 A 17.172593 17.172593 0 0 1 79.548828 127.53125 A 17.172593 17.172593 0 0 1 96.722656 144.70508 A 17.172593 17.172593 0 0 1 79.548828 161.87695 A 17.172593 17.172593 0 0 1 62.376953 144.70508 A 17.172593 17.172593 0 0 1 79.404297 127.53125 z M 188.50391 147.23047 A 17.172593 17.172593 0 0 1 188.64648 147.23047 A 17.172593 17.172593 0 0 1 205.81836 164.40234 A 17.172593 17.172593 0 0 1 188.64648 181.57422 A 17.172593 17.172593 0 0 1 171.47266 164.40234 A 17.172593 17.172593 0 0 1 188.50391 147.23047 z M 129.4082 171.97852 A 17.172593 17.172593 0 0 1 129.41016 171.97852 A 17.172593 17.172593 0 0 1 129.55273 171.97852 A 17.172593 17.172593 0 0 1 146.72461 189.15039 A 17.172593 17.172593 0 0 1 129.55273 206.32422 A 17.172593 17.172593 0 0 1 112.37891 189.15039 A 17.172593 17.172593 0 0 1 129.4082 171.97852 z "
       transform="scale(0.26458333)" />
  </g>
</svg>
